<svg xmlns="http://www.w3.org/2000/svg" width="1120" height="1200" viewBox="0 0 896.000000 960.000000"><g transform="matrix(.1 0 0-.1 0 960)"><path d="m7110 9151c-35-11-90-40-123-65-24-18-43-21-130-21-84 0-110-4-150-22-109-50-199-159-262-316-47-116-65-210-72-374l-6-142-51-11c-28-5-142-31-254-57l-202-46-25 23c-31 29-108 31-204 6-61-17-64-17-77 2-18 26-58 33-134 22-43-6-70-16-88-32-30-28-61-93-62-128v-26l-897-204c-494-112-919-206-945-208l-48-4v37c0 83-99 122-225 90-44-11-68-24-90-49-22-25-47-38-95-51-36-9-73-22-83-27-23-12-47-67-47-106v-28l-231-53c-127-29-232-51-233-49-1 2-13 32-26 68-76 216-247 438-391 509-126 62-256 60-364-5l-56-33-57 14c-208 55-385-62-487-320-47-119-65-231-65-407 0-155 0-158-22-163-13-3-125-27-250-54-126-28-232-53-238-56-5-3-10-28-10-55 0-37 6-56 23-76l24-27 248 57c259 59 264 59 265 12 0-30 66-219 101-288 78-156 199-304 301-369 135-87 303-91 423-9 37 25 43 26 75 14 58-21 181-17 247 7 139 52 264 245 309 477 29 152 29 280-2 502l-6 45 199 44c109 25 207 46 219 49 16 3 23-4 32-36 7-23 28-59 47-82 19-23 35-50 35-59 0-27 76-328 122-486 48-162 120-356 148-396 11-15 20-37 20-49 0-46 38-97 95-125 13-6 27-32 38-70 10-33 23-78 30-100l12-40-49-30c-92-55-120-162-75-277 19-50 46-75 445-427l424-373-2-351-3-351-295-96c-162-53-303-99-312-103-15-5-18-20-18-92v-87l68-74c37-40 73-74 80-74 14 0 1173 378 1244 405l37 14 6-47c22-182 46-262 92-302 19-17 42-30 52-30 14 0 28-19 49-62 16-35 48-85 71-113 52-63 65-109 56-201-4-42-2-105 5-147l11-75-64-159c-133-326-144-460-67-843 16-80 38-213 50-297 20-143 20-154 5-214-18-68-14-139 11-239 8-30 14-96 14-147 0-89 2-97 40-171 28-55 42-98 49-148 11-90 30-126 89-169 47-35 137-69 153-59 5 2 22-2 38-11 41-21 90-19 126 5 19 13 47 20 78 20 40 0 54 5 77 28 26 26 33 28 83 24 53-4 57-3 95 34 60 58 61 73 7 134-25 28-45 58-45 66 0 9-29 46-64 82-44 47-78 95-109 158-34 67-67 115-126 178-43 47-84 100-90 119-8 23-33 432-27 444 1 0 289 114 641 251l640 251 2 103 3 103-94 58-94 57-319-126c-175-70-327-128-338-131-20-4-20-1-15 464l5 468 375 132c206 73 392 140 413 149 55 25 94 74 102 129l7 45 57-58c34-35 82-71 123-91 49-24 68-40 73-58 3-14-1-113-10-219-16-180-16-201 0-291 17-105 42-168 97-249 37-54 64-148 93-316 21-129 2-279-56-420-29-71-43-123-46-169-6-76 7-109 62-158 43-37 85-40 230-15 84 14 97 14 156-1 71-19 94-29 227-103 58-33 104-52 125-52 17 0 73-8 122-17 50-9 120-17 157-17 63 0 71 2 125 40 51 36 58 46 61 78 6 68-53 122-163 150-33 8-79 24-102 36-23 11-50 20-60 20-10 0-65 49-123 108-58 60-141 136-185 169-109 83-134 111-151 174-18 66-19 271-4 461 15 177 4 561-21 744-15 112-17 150-8 190 22 99 21 129-5 230-28 102-57 163-98 201-13 12-68 43-122 69-79 37-119 65-200 137-87 78-119 99-241 159-77 37-170 78-207 90-38 12-68 26-68 31 0 15-101 53-225 85-66 18-178 52-250 77-105 37-138 54-170 85-32 32-53 42-110 55-116 26-132 34-154 71-11 19-33 40-47 46-32 15-186 220-220 292-20 43-24 67-24 151 0 102-17 163-57 207-27 30-7 63 103 170 160 155 198 249 214 523 8 138 11 156 41 223 29 66 32 78 22 114-9 32-7 51 8 101 11 34 24 103 31 152 10 81 9 103-11 220-31 178-43 329-34 460 9 150 9 198-1 285l-8 76 232 52c128 30 238 56 245 59 10 3 16-7 20-34 23-140 102-340 181-458 83-125 187-215 289-250 107-36 246-15 332 51 34 25 42 27 142 28 89 1 114 5 152 24 162 80 279 290 320 577 11 79 7 333-6 367-5 13-1 19 17 22 12 3 124 29 248 56 318 72 296 65 304 102 8 41-21 102-50 106-17 2-421-84-529-114-18-5-24 4-44 68-76 239-225 445-377 519-57 28-79 33-153 36-47 1-97-1-111-6m244-77c112-55 233-203 308-376 128-298 142-699 32-959-35-84-98-181-142-220-55-49-134-81-202-82-32-1-61 1-65 4-3 4 8 27 25 52 47 71 88 165 117 273 25 91 27 115 27 294 1 214-11 298-64 459-71 217-216 428-338 490-23 12-42 25-42 29 0 10 71 51 108 63 15 5 61 7 102 5 58-2 88-9 134-32m-360-88c106-52 225-194 302-360 94-205 136-504 103-743-12-93-58-234-102-317-46-89-138-178-207-201-204-68-397 58-541 350-47 96-89 222-104 312-6 39-5 43 17 47 303 68 424 99 430 109 22 34-12 137-44 137-7 0-107-22-222-49l-209-48 6 136c14 323 140 576 324 646 61 24 179 14 247-19m1336-385c5-11 10-30 10-43 0-22-12-26-268-84-147-34-270-59-273-55-4 3-10 23-13 43-6 33-4 38 16 43 13 2 129 29 258 59 129 29 240 54 247 55 7 0 17-8 23-18m-1460-377c0-16-7-25-22-29-13-3-219-50-458-104-239-54-446-102-460-105-23-6-26-3-36 39-10 42-9 46 10 50 12 3 226 51 476 108 448 102 455 103 473 84 9-10 17-30 17-43m-1328-156c21-27 32-51 30-65-3-22-8-23-92-23-78 0-89 2-95 19-8 25-31 44-45 36-7-4-7-13 1-27 9-16 8-23-2-29-36-23-39 7-6 71 24 49 41 57 128 59 43 1 49-2 81-41m262 11c32-25 61-116 51-165-15-84-119-132-206-97l-41 16 26 24c36 34 37 105 2 129-15 9-23 21-19 30 3 8-3 24-13 35-29 33-2 44 122 47 38 2 58-3 78-19m-176-149c5-44-20-64-85-70-43-4-58-9-58-20 0-10 14-17 45-21 107-13 177-83 152-152-15-40-15-57-2-57 18 0 42 64 44 114l1 50 45 8c33 6 52 16 72 40l27 33 1-78c0-82-11-117-49-151-12-11-21-25-21-33 0-18 25-17 40 2 7 8 16 15 20 15 4 0 7-62 6-137-1-109 5-177 29-321 27-170 28-188 17-268-7-47-21-107-32-134-18-45-18-53-5-90 13-36 13-44-2-75-18-38-33-46-33-18 0 11-3 14-10 7-6-6-14-100-19-210-13-269-35-335-172-500-46-55-96-116-110-135-15-19-29-32-32-29-3 3 3 37 14 75 18 67 19 102 1 91-5-3-17-35-27-71-9-36-21-68-26-71-5-2-20 3-34 12-20 13-25 25-25 56 0 49-20 88-77 149-26 28-40 50-34 54 7 3 11 42 11 91 0 86 20 198 47 262 8 18 43 65 79 103 62 66 79 94 51 83-17-6-31 118-31 261 0 74 5 107 31 186 40 119 72 275 80 382 8 107 15 121 39 68 18-40 34-54 34-28 0 46-35 110-83 150-28 23-73 63-101 88-47 44-50 50-57 110-4 35-10 88-14 116l-8 53 36 15c21 9 63 14 106 13 39 0 74 2 78 6 14 14 38 0 41-24m-294-2c-4-13-7-36-8-52-1-28-4-30-66-43-36-7-447-100-915-207-467-106-851-193-851-192-1 0-4 22-6 48l-5 46 36 7c72 13 1757 396 1781 404 38 14 42 13 34-11m-3442-64c102-36 200-127 297-274 122-186 188-406 206-680 13-187-17-353-90-508-54-114-133-199-209-225-50-17-159-21-205-8l-24 6 25 30c40 48 85 134 113 217 114 344 42 830-171 1155-40 60-180 208-224 235l-25 15 43 22c83 42 172 48 264 15m-411-50c75-22 137-64 211-142 111-118 194-266 248-442 51-167 64-258 64-450-1-156-4-186-26-271-49-181-135-317-239-374-48-27-63-30-139-30-75 0-93 4-154 33-122 57-259 216-341 395-34 74-78 206-90 267l-6 35 84 18c245 50 304 68 316 93 18 40 13 72-16 104l-28 31-175-41c-96-22-183-43-194-46-17-6-18 2-14 177 4 162 8 194 32 272 90 298 258 432 467 371m3869-4c0-5-2-10-4-10-3 0-8 5-11 10-3 6-1 10 4 10 6 0 11-4 11-10m-40-57c11-41 28-63 114-146l101-98-2-77c-3-109-36-287-80-427-35-112-37-128-36-240 0-66 2-150 4-186 4-66 4-66-42-120-61-72-65-80-88-194-11-54-26-102-33-106-7-5-48-20-91-35-42-14-100-41-127-60-27-19-58-34-69-34-10 0-45-14-77-31l-59-31-96 17c-53 10-115 15-137 13-47-7-52 0-52 71 0 67-26 145-60 185-16 18-69 54-118 78-103 53-200 74-305 65-102-9-219-69-254-131-9-16-15-13-71 25-57 39-63 47-86 113-13 39-31 109-40 155-18 99-49 152-162 273-85 91-109 132-119 207-7 52-6 54 32 95 74 77 123 158 130 214l6 51 51 11c28 6 431 98 896 204 465 106 848 191 851 190 3-2 12-25 19-51m-1998-115c8-7 20-32 26-55l10-43h-70c-62 0-70 2-75 20-6 24-58 54-75 44-8-5-3-14 13-28 34-29 59-70 59-98 0-36 27-66 70-79l40-12-47-32c-27-18-57-42-67-54-15-16-31-21-72-21-29 0-60 3-69 6-19 8-45 55-45 83 0 25-67 91-92 91-11 0-18-7-18-20 0-11-7-20-16-20-11 0-14 6-9 23 20 70 24 74 91 91 49 11 77 26 111 56 25 22 60 44 77 49 47 14 140 13 158-1m79-128c70 0 74-7 64-121-8-92-34-138-127-230-47-47-58-64-63-103-9-57 5-99 15-46l6 35 8-30c23-89 43-123 126-210 105-111 137-169 157-283 8-48 17-99 20-114 5-25 2-28-21-28-14 0-47 14-73 30-49 31-86 39-77 17 2-7 20-21 40-32 19-10 50-35 69-56 27-31 36-51 46-113 7-42 17-76 21-76 19 0 21 37 5 98-10 36-15 68-12 71 12 12 102-46 158-101 40-39 68-79 88-125 17-37 39-86 49-108 29-61 59-142 86-227 14-43 28-78 32-78 4 0 6 20 4 45-6 67 16 95 72 95 30 0 46-5 50-15 8-22 24-18 62 14 82 72 313 151 441 151 57 0 178-35 210-60 19-15 29-18 32-9 2 7-4 18-13 24-25 18-20 24 37 50 63 29 173 49 231 43 81-9 222-132 241-211 9-34-5-39-58-21-48 16-96 16-100-1-1-5 18-13 43-16 25-3 71-18 103-34 56-29 72-45 42-45-8 0-15-5-15-11 0-8 12-10 33-6 31 5 35 2 69-51 50-77 54-92 63-202 11-155 19-175 132-332 35-48 63-90 63-93 0-3-18-5-40-5-46 0-60 18-53 70 4 28 3 33-7 23-7-7-13-32-13-56l1-44-56-13c-99-22-349-129-423-181-23-16-29-17-68-3-64 22-149 27-205 12-65-17-78-44-15-32 62 12 116 11 171-5l47-13-86-82c-48-44-98-100-113-123l-27-41-26 56c-36 77-37 77-160 169-150 111-238 159-346 189-272 74-413 182-467 357-10 32-23 57-31 57-9 0-11-8-7-26 8-33-168 147-239 244-53 73-108 182-111 222-1 14-9 37-19 51-10 15-28 69-41 120-24 93-24 94-65 112-59 26-105 107-68 120 8 3 6 11-9 28-42 48-63 98-117 269-52 164-157 569-157 603 0 9-18 37-40 62-45 53-73 101-67 118 2 6 26 16 53 22 43 9 52 8 75-7 17-13 45-19 87-21l62-1v-38c0-20 5-40 10-43 6-4 10 7 10 25 0 73 55 135 167 187 50 23 81 49 71 59-3 2-17 0-32-6-63-24-145-7-164 34-18 40 3 59 56 52 24-3 71-6 103-6m-422-127c5-10 11-29 12-42 4-24 1-25-268-86-149-34-278-65-287-68-11-5-18 3-26 31-5 20-10 42-10 48 0 7 35 20 78 29 42 9 158 36 257 60 207 49 231 52 244 28m-1599-358c12-15 17-61 8-71-3-2-194-47-424-100-230-52-427-97-436-100-15-4-18 1-18 26 0 17-5 40-10 51-6 10-7 19-3 20 4 0 195 42 423 94 228 51 422 93 431 94 9 0 22-6 29-14m-902-197c14-14 16-74 3-83-14-8-31 28-31 64 0 33 8 39 28 19m3810-501c137-48 200-116 215-230 15-113 15-112-13-115-72-9-230-75-290-121-22-17-36-19-116-14l-91 6-16 41c-41 107-108 261-127 291-25 40-20 56 36 104 63 56 119 71 239 67 64-2 111-11 163-29m982-251c0-13 3-38 6-55l7-31-44 25c-30 17-59 25-91 25-27 0-48 5-48 10 0 6 3 10 8 10 4 0 39 9 77 20 89 24 85 24 85-4m-1753-481c47-92 117-179 197-244 69-57 113-111 169-211 37-66 113-133 203-178 44-22 90-43 103-47 23-7 679-547 692-569 4-6 14-41 23-77 9-36 27-94 41-127 14-34 25-66 25-72 0-11-74 53-999 870-336 298-612 549-620 565-8 17-17 57-19 90-4 55-1 64 24 94 15 19 42 42 58 52l30 18 22-52c11-29 35-79 51-112m2319-667c15-15 13-17-30-23-67-10-65-21 7-28 34-3 83-14 107-25 25-10 70-25 100-32 37-9 64-23 83-43 34-37 315-146 495-192 114-30 140-45 78-45-60 0-205-59-245-99-42-43-93-144-115-227-19-75-46-259-46-314 0-39 2-42 23-37 21 6 56-7 47-17-3-2-17-7-31-11-21-5-46 9-150 85-118 88-126 92-166 87-24-2-68-17-99-32l-57-28 6-61 6-61-27 35c-66 85-111 109-242 130-140 22-268 5-339-44-42-29-112-122-138-183-9-21-19-67-22-103-6-61-7-64-20-41-8 14-21 85-31 159-15 118-15 142-3 205 22 115 21 195-4 243-22 41-50 71-58 62-3-3 6-29 20-59 23-50 35-112 18-95-13 13-44 99-69 195-24 90-24 96-9 147 48 166 428 413 712 464 75 14 180 7 199-12m-1355-124c207-128 224-140 271-196 40-47 114-175 106-183-2-2-109 85-239 193-130 109-254 211-275 229-38 31-38 32-13 32 15 1 76-30 150-75m-147-250l107-96-1-202c0-110-1-207 0-213 0-21 29-15 199 42l164 55 32-28c18-15 58-47 88-72 57-46 66-65 45-92-7-9-295-108-642-221l-630-206-53 57c-51 56-52 58-53 120 0 34 2 62 5 62 16 0 602 194 613 203 11 8 13 78 10 349-2 186 0 338 3 338 3 0 54-43 113-96m2624-116c169-71 273-136 361-225 53-53 84-74 167-113 95-44 106-53 137-102 43-66 101-241 94-283-3-17-19-53-35-80-35-58-45-94-32-115 8-12 11-12 22-2 11 11 15-5 25-85 35-292 37-350 22-623-15-286-15-413 2-530 17-123 32-145 177-253 70-52 159-128 197-169 39-40 86-81 105-90 59-29 198-78 222-78 13 0 43-18 68-39 43-38 44-40 30-67-12-26-14-27-18-9-7 34-31 53-78 60-25 3-64 13-87 21-42 15-73 12-62-6 3-5 16-10 28-10 13 0 32-6 43-14 11-8 43-16 70-18 43-3 50-6 58-30 8-22 6-32-9-48-17-19-28-21-80-17-33 2-78 9-100 15-22 7-78 12-123 12-91 0-130 15-153 57-14 27-29 30-29 7 0-13-9-10-47 12-170 98-274 137-259 98 4-11 2-15-6-11-7 2-58 1-113-4-159-13-213 13-223 109-4 42 2 63 37 141 51 113 69 181 77 286 7 83-7 216-31 315-16 60-12 77 6 36 13-28 24-33 34-15 13 19-4 56-56 120-67 84-93 130-118 209-41 130-44 283-11 521 11 76 15 86 31 82 10-3 39-2 65 2 63 9 51 29-23 36-81 8-170 52-268 131-80 66-137 100-186 111-14 4-80 11-145 17-170 14-217 26-325 77l-96 45 8 46c5 26 16 92 24 146 20 126 47 207 90 272 38 59 84 85 185 108 103 24 164 13 328-56m-2320-148c66-58 121-107 121-110 1-5-255-90-269-90-3 0-5 74-6 165 0 154 1 164 17 153 9-7 71-60 137-118m1447-372c141-120 207-147 269-109 32 20 37 21 64 7 55-28 177-56 292-66 212-19 200-16 200-58 0-52-32-100-83-122-50-22-832-300-865-307-23-5-23-4-20 76l3 82 378 123c208 68 383 128 389 134 33 33-49 12-384-97-201-65-371-121-376-125-12-7-22 26-22 74 0 19-7 62-14 95-8 33-17 115-21 181l-7 122 53 20c30 12 61 21 69 21 8 1 42-22 75-51m-410 7c146-71 219-274 227-630 2-87 0-105-19-140-20-36-22-37-23-15 0 14-4 31-9 39-7 11-11 9-21-9-9-16-11-49-7-104 6-91 1-109-60-203-35-54-42-73-48-140-9-99-27-153-77-225-45-67-97-196-127-319-25-101-32-220-13-226 8-3 12 10 12 45 0 49 38 197 79 308 24 63 86 179 101 189 13 8 25-96 24-215 0-116-16-170-72-252-17-25-36-66-43-92-14-58-6-539 11-609 13-51 40-93 137-211 34-42 79-108 100-148 21-40 63-98 95-130 32-32 65-73 74-90 9-18 30-45 45-61 35-35 36-57 6-93-27-32-73-35-114-9-27 18-53 14-53-9 0-32-41-56-95-56-30 0-59-6-71-15-21-16-80-20-88-6-3 4-22 11-43 13-55 8-171 66-190 95-11 17-18 48-18 92-1 58-7 77-50 159-48 92-48 92-42 166 6 70 0 106-28 181-7 16-6 18 6 7 20-18 29-15 29 13 0 14-11 34-25 47-29 25-31 45-9 130 25 94 13 227-43 497-42 203-47 240-47 361 0 144 9 200 56 348 27 85 48 118 48 74 0-25 42-148 69-200 21-41 49-59 38-24-87 270-89 289-55 398 19 62 20 75 10 136-15 85-15 173-1 199 15 30-4 77-68 167-67 93-94 145-122 236-34 112-29 144 41 247 47 68 98 98 186 109 118 15 225 6 287-25m-550-335c7-22 6-23-9-11-9 7-16 23-16 34 0 26 15 12 25-23m887-846c-2-277 1-491 6-496 5-5 147 46 343 123 184 72 341 133 351 136 9 3 48-14 87-37l71-42v-72-72l-612-239c-336-132-616-242-621-244-26-10 2 100 51 199 28 58 58 134 67 169 19 73 21 217 5 316-7 46-7 85-1 123 6 32 13 78 16 103 3 26 24 84 46 130 22 45 48 117 59 158 32 133 63 202 96 217 16 7 31 13 34 13 3 1 4-218 2-485"/><path d="m7166 9052c-9-14 8-28 51-40 103-30 207-129 271-258 102-203 154-561 122-823-22-175-95-329-188-396-39-29-51-48-34-59 14-9 102 69 142 126 92 129 125 287 117 553-8 260-47 448-128 613-53 109-144 207-231 249-71 34-114 47-122 35"/><path d="m6790 8967c0-7 24-21 54-30 149-47 268-196 331-414 72-249 89-593 39-787-31-119-104-236-178-287-36-24-47-49-23-49 22 0 101 67 136 115 46 64 86 157 107 250 25 107 25 382 1 540-54 350-165 552-352 642-73 35-115 42-115 20"/><path d="m5747 8014c-3-4-1-16 5-27 6-12 8-42 4-73-10-88 24-78 37 11 8 54-22 113-46 89"/><path d="m5803 7108c-6-7-16-40-22-72-12-64-48-127-119-210-43-50-82-115-82-136 0-26 29-6 46 33 10 23 45 70 77 105 64 69 80 101 108 207 18 67 14 100-8 73"/><path d="m5813 6738c-31-35-45-66-32-73 6-4 12-5 13-4 9 11 56 89 56 94 0 12-18 3-37-17"/><path d="m5671 6717c-23-60-23-113-1-159 12-26 28-49 35-52 27-10 27 15 1 53-25 35-26 43-20 109 7 73 1 91-15 49"/><path d="m5620 6405c18-63 18-75 5-179-7-61-23-142-35-179-22-72-21-89 5-67 26 21 55 138 66 264 10 110 9 126-8 171-11 28-26 51-35 53-16 3-15-2 2-63"/><path d="m1730 7828c0-9 18-20 43-27 111-33 232-139 300-263 136-245 207-756 141-1008-31-121-95-227-166-277-38-26-50-53-24-53 8 0 42 25 75 56 68 62 118 152 148 264 28 101 25 444-5 600-67 357-188 578-369 673-80 42-143 57-143 35"/><path d="m1340 7777c0-9 16-20 38-28 238-77 383-319 448-751 24-156 24-388 0-493-26-119-77-214-147-280-33-29-59-59-59-64 0-22 30-9 78 34 135 121 190 306 179 594-10 262-61 491-152 678-67 137-152 231-255 281-82 40-130 51-130 29"/><path d="m3030 7510c0-6 11-14 23-19 31-12 77-67 77-92 0-10 7-19 15-19 33 0 0 88-45 120-30 21-70 27-70 10"/><path d="m3276 6763c21-116 75-242 113-262 33-18 30-1-9 55-33 47-67 134-85 217-9 43-27 33-19-10"/><path d="m3370 6194c0-3 8-18 19-32 10-15 21-48 25-75 5-29 11-45 18-41 13 8 1 123-14 141-10 13-48 18-48 7"/><path d="m3650 6080c0-7 13-40 29-74 16-33 39-92 51-131 12-38 33-106 47-150 27-86 45-115 75-115 25 0 23 18-4 40-48 38-8 28 83-21 118-64 119-65 119-103 0-17 5-38 10-46 15-23 32 8 24 45-10 48-22 63-72 91-26 15-84 51-129 80-91 60-89 56-143 239-28 96-53 144-78 153-7 2-12-2-12-8"/><path d="m3470 5894c0-3 29-43 65-89 52-66 65-90 65-118 0-20-4-39-10-42-20-12-11-36 12-33 35 5 48 76 22 117-43 67-128 171-140 171-8 0-14-3-14-6"/><path d="m4930 5843c0-39 29-51 133-55 53-1 97 0 97 4 0 17-44 28-111 28-61 0-76 4-96 22-23 21-23 21-23 1"/><path d="m4866 5839c-3-8-6-23-8-34-2-15-19-24-69-37-160-42-177-53-278-177-57-72-99-93-198-100-56-4-88-10-91-18-3-10 18-13 80-13 114 0 163 25 259 131 88 98 111 111 266 149 38 10 43 15 53 52 8 28 8 44 1 51-7 7-12 6-15-4"/><path d="m4940 5752c0-5 7-17 15-28 8-10 15-29 15-42 0-22-19-37-159-121-48-29-82-84-63-103 9-9 15-3 28 29 14 34 25 45 65 62 26 12 59 21 73 21 34 0 62 29 77 79 10 35 9 43-10 75-21 33-41 47-41 28"/><path d="m5050 5716c0-8 15-25 33-38 26-19 45-23 109-24 48 0 82-5 92-13 24-20 32-5 11 19-15 17-31 20-93 20-55 0-81 5-100 18-46 32-52 34-52 18"/><path d="m5100 5614c0-7 12-38 27-70 52-115 24-194-70-194-29 0-54-8-79-25-36-24-41-35-51-115-1-8-17-24-34-35-37-23-42-35-14-35 28 0 70 48 82 94 6 22 13 47 15 54 5 17 48 32 91 32 19 0 53 10 74 22 32 18 39 28 45 64 7 46-1 95-22 134-19 36-63 87-64 74"/><path d="m5330 5611c0-5 15-20 34-35 20-15 37-38 41-56 8-36 25-40 25-5 0 15-15 41-36 65-34 37-64 52-64 31"/><path d="m3886 5531c-8-13 47-90 80-112 34-22 77-25 93-5 16 19-4 32-23 17-24-20-65 8-92 61-23 45-45 60-58 39"/><path d="m5201 5446c2-10 15-27 29-38 23-16 31-17 84-7 49 10 62 10 85-4 17-10 32-13 41-7 8 5 12 10 10 12-52 33-83 40-146 34-56-6-70-4-86 11-20 17-20 17-17-1"/><path d="m4552 5425c-47-18-69-22-82-15-24 13-37-5-20-25 19-22 63-18 104 10 20 14 51 25 67 25 20 0 29 4 27 13-7 20-29 18-96-8"/><path d="m4735 5430c-3-6-5-43-4-83 5-175-1-201-51-214-36-10-36-29 0-25 39 5 70 30 86 68 12 29 13 45 3 92-13 61-16 115-9 146 5 21-14 34-25 16"/><path d="m5210 5374c0-4 10-22 21-41 12-20 26-56 30-81 10-50 24-72 46-72 13 0 13 3 3 15-7 9-17 39-21 67-5 27-15 61-24 74-15 23-55 51-55 38"/><path d="m5455 5358c4-13 10-47 12-76 3-34 9-52 16-49 18 6 20 71 3 111-17 40-43 51-31 14"/><path d="m4237 5353c-22-21 18-45 88-53 44-4 50-8 52-30 4-38-37-81-91-94-57-15-56-31 2-31 51 0 59-10 68-88 7-58 33-107 59-107 25 0 26 30 1 41-25 12-36 44-36 104 0 18-8 43-18 55-18 22-17 23 6 50 23 26 26 27 51 14 30-16 121-19 121-4 0 6-16 10-35 10-51 0-84 19-93 54-8 29-6 32 22 42 25 9 33 8 39-2 12-20 27-17 27 5 0 26-21 29-114 14-74-12-82-11-111 7-18 11-35 17-38 13"/><path d="m4520 5310c0-21 41-50 70-50 38 0 100 25 100 41 0 7-8 9-22 4-52-17-98-17-123-1-14 9-25 12-25 6"/><path d="m5327 5193c7-17 57-26 112-18 31 4 51 3 56-4 3-6 14-11 23-11 14 0 13 4-6 23-20 19-33 22-106 22-60 0-82-3-79-12"/><path d="m5265 5158c-6-13-23-27-40-32-61-18-76-26-87-51-16-36-2-42 27-11 18 19 31 25 48 21 34-9 77 28 77 66 0 35-11 38-25 7"/><path d="m5332 5133c14-16 38-52 52-81 30-65 24-91-28-116-20-9-36-23-36-31 0-21 5-19 56 15 31 22 44 38 44 55 0 13 6 25 13 28 8 3 5 12-10 29-13 13-23 32-23 41 0 22-58 87-78 87-12 0-9-7 10-27"/><path d="m5520 5131c0-5 11-16 25-25 17-11 27-29 31-56 8-49 24-53 24-6 0 22-9 45-26 65-24 29-54 41-54 22"/><path d="m4730 5083c0-33 55-73 100-73 44 0 90 15 90 29 0 5-29 8-64 8-59-2-67 1-95 27-29 28-31 28-31 9"/><path d="m4532 5039c7-22 79-43 122-35 55 11 39 29-29 31-33 1-68 6-79 10-14 6-18 5-14-6"/><path d="m4929 5023c-11-13-11-15-1-9 9 5 24-3 44-23 38-38 94-43 124-10 12 13 27 19 41 16 26-5 31 10 7 20-9 3-29-1-44-11-41-24-82-20-110 9-28 29-42 31-61 8"/><path d="m5456 5001c-9-14-11-13 57-16 31-1 57 2 57 7 0 4-15 8-32 8-18 0-43 3-54 6-12 3-25 1-28-5"/><path d="m5160 4950c0-40 28-90 50-90h21l-20 25c-11 14-23 39-26 55-7 34-25 40-25 10"/><path d="m4215 6228c-17-13-49-66-81-136-30-62-54-115-54-118 0-10 39-3 49 10 6 7 23 47 36 87 29 86 66 145 95 154 11 3 20 11 20 16 0 17-37 9-65-13"/><path d="m5575 4851c-16-11-41-31-55-46-28-32-48-40-140-59-92-19-133-43-210-118-89-86-135-144-165-211-26-55-30-103-10-101 11 2 15 8 60 108 29 66 50 94 116 159 86 84 128 108 224 127 33 7 69 17 80 22 48 25 144 105 145 121 0 22-8 21-45-2"/><path d="m5825 4726c-300-100-468-181-481-230-12-48 6-48 59 0 62 56 118 83 332 159 191 68 277 104 269 116-8 13-4 14-179-45"/><path d="m5998 4676c-25-15-76-29-153-41-115-19-116-19-187-76-66-52-120-79-162-79-21 0-21-16 0-24 44-17 133 19 204 82 47 41 60 45 261 87 86 18 115 34 106 59-8 22-25 20-69-8"/><path d="m6133 4607c-56-62-103-186-103-274 0-39 13-63 28-49 3 4 12 50 18 102 11 81 19 106 52 165 40 69 43 98 5 56"/><path d="m5507 4303c-4-3-7-15-7-25 0-15 8-18 43-18 47 0 113-27 139-56 9-11 37-55 61-99 31-56 50-80 63-80 30 0 19 30-49 133-55 82-69 96-121 122-55 28-114 39-129 23"/><path d="m7320 4111c0-12 12-50 27-84 22-51 27-81 31-169 3-81 8-108 17-108 22 0 27 36 20 147-6 90-12 114-39 166-32 64-56 84-56 48"/><path d="m6952 3888c-20-20-15-25 49-47 45-15 77-35 123-79 70-65 120-85 201-80 39 2 51 7 53 22 4 17-1 18-56 11-70-8-94 2-162 66-52 49-137 105-171 114-14 3-29 1-37-7"/><path d="m7471 2023c-24-92-25-115-5-130 21-15 82-17 104-3 12 8 9 10-12 10-15 0-39 5-53 10-25 9-27 14-21 48 16 89 18 112 9 112-5 0-15-21-22-47"/><path d="m5567 3395c-86-92-97-115-56-115 43 0 178 175 153 200-6 6-39-23-97-85"/><path d="m5720 3444c0-8 18-37 41-64 30-36 42-60 47-96 5-35 12-50 25-52 25-5 23 67-4 121-38 75-109 135-109 91"/><path d="m5540 2916c0-8 14-26 31-40 39-33 103-36 119-7 12 24 0 34-32 26-14-3-39 3-63 15-47 24-55 25-55 6"/><path d="m5482 1390c-13-28-47-82-77-122-34-45-51-76-45-82 14-14 38 10 85 84 39 61 75 138 75 160 0 24-17 6-38-40"/><path d="m5790 697c0-7 10-17 22-22 12-6 25-21 28-35 4-16 13-25 25-25 31 0 29 29-4 63-29 32-71 43-71 19"/><path d="m5537 694c-4-4-7-15-7-25 0-14 12-19 55-24 30-4 70-4 87 0 18 3 52 9 76 12 23 3 42 9 42 14 0 18-48 29-80 17-30-10-102-7-145 7-11 3-24 3-28-1"/></g></svg>