<svg width="1200" height="760" viewBox="0 0 1200 760" fill="none" xmlns="http://www.w3.org/2000/svg">
  <rect width="1200" height="760" fill="#f7f3ea"/>
  <rect x="64" y="64" width="1072" height="632" rx="32" fill="#17211f"/>
  <path d="M64 290H1136" stroke="#f7f3ea" stroke-opacity="0.12" stroke-width="2"/>
  <path d="M64 498H1136" stroke="#f7f3ea" stroke-opacity="0.12" stroke-width="2"/>
  <path d="M380 64V696" stroke="#f7f3ea" stroke-opacity="0.12" stroke-width="2"/>
  <path d="M780 64V696" stroke="#f7f3ea" stroke-opacity="0.12" stroke-width="2"/>
  <circle cx="224" cy="212" r="82" fill="#81d4c4"/>
  <circle cx="224" cy="212" r="47" fill="#17211f"/>
  <circle cx="224" cy="212" r="18" fill="#f7f3ea"/>
  <path d="M528 212C528 167.817 563.817 132 608 132H656C700.183 132 736 167.817 736 212C736 256.183 700.183 292 656 292H608C563.817 292 528 256.183 528 212Z" fill="#ffcf70"/>
  <path d="M570 212H694" stroke="#17211f" stroke-width="22" stroke-linecap="round"/>
  <path d="M972 132L1048 212L972 292L896 212L972 132Z" fill="#ff8f70"/>
  <path d="M948 212H996" stroke="#17211f" stroke-width="20" stroke-linecap="round"/>
  <path d="M972 188V236" stroke="#17211f" stroke-width="20" stroke-linecap="round"/>
  <text x="104" y="416" fill="#f7f3ea" font-family="Arial, sans-serif" font-size="48" font-weight="700">AI 模型</text>
  <text x="104" y="464" fill="#c9d8d2" font-family="Arial, sans-serif" font-size="28">Grok 4.3 / 成本曲线</text>
  <text x="440" y="416" fill="#f7f3ea" font-family="Arial, sans-serif" font-size="48" font-weight="700">Agent 权限</text>
  <text x="440" y="464" fill="#c9d8d2" font-family="Arial, sans-serif" font-size="28">身份 / 审计 / 确认</text>
  <text x="828" y="416" fill="#f7f3ea" font-family="Arial, sans-serif" font-size="48" font-weight="700">前端供应链</text>
  <text x="828" y="464" fill="#c9d8d2" font-family="Arial, sans-serif" font-size="28">npm / PyPI / CI/CD</text>
  <text x="104" y="602" fill="#f7f3ea" font-family="Arial, sans-serif" font-size="62" font-weight="800">2026-05-02</text>
  <text x="104" y="648" fill="#c9d8d2" font-family="Arial, sans-serif" font-size="30">X 上 AI 与前端热点速览</text>
  <path d="M892 598H1088" stroke="#81d4c4" stroke-width="10" stroke-linecap="round"/>
  <path d="M892 632H1036" stroke="#ffcf70" stroke-width="10" stroke-linecap="round"/>
  <path d="M892 666H1112" stroke="#ff8f70" stroke-width="10" stroke-linecap="round"/>
</svg>
