<svg width="1792" height="1024" viewBox="0 0 1792 1024" fill="none" xmlns="http://www.w3.org/2000/svg">
  <defs>
    <linearGradient id="leftWash" x1="0" y1="0" x2="1040" y2="0" gradientUnits="userSpaceOnUse">
      <stop offset="0" stop-color="#FFF8EE" stop-opacity="0.98" />
      <stop offset="0.58" stop-color="#FFF5E7" stop-opacity="0.86" />
      <stop offset="1" stop-color="#FFF5E7" stop-opacity="0" />
    </linearGradient>
    <linearGradient id="accentLine" x1="84" y1="0" x2="596" y2="0" gradientUnits="userSpaceOnUse">
      <stop offset="0" stop-color="#1AA3A8" />
      <stop offset="0.52" stop-color="#1AA3A8" />
      <stop offset="1" stop-color="#FF7A00" />
    </linearGradient>
    <linearGradient id="subAccent" x1="0" y1="0" x2="1" y2="0">
      <stop offset="0" stop-color="#0F766E" />
      <stop offset="1" stop-color="#FF7A00" />
    </linearGradient>
    <filter id="titleShadow" x="-10%" y="-10%" width="130%" height="130%">
      <feDropShadow dx="0" dy="10" stdDeviation="10" flood-color="#09242B" flood-opacity="0.18" />
    </filter>
    <filter id="softBlur" x="-20%" y="-20%" width="140%" height="140%">
      <feGaussianBlur stdDeviation="36" />
    </filter>
    <pattern id="dotPattern" width="18" height="18" patternUnits="userSpaceOnUse">
      <circle cx="4" cy="4" r="2.3" fill="#D8D2C7" fill-opacity="0.95" />
    </pattern>
  </defs>

  <image href="cover-bg.png" x="0" y="0" width="1792" height="1024" preserveAspectRatio="xMidYMid slice" />

  <rect x="0" y="0" width="1110" height="1024" fill="url(#leftWash)" />
  <ellipse cx="436" cy="384" rx="404" ry="308" fill="#FFF7EC" fill-opacity="0.88" filter="url(#softBlur)" />
  <ellipse cx="1210" cy="824" rx="250" ry="112" fill="#FFF1D9" fill-opacity="0.44" filter="url(#softBlur)" />

  <rect x="98" y="150" width="108" height="108" rx="54" fill="#FFEAB6" fill-opacity="0.98" />
  <rect x="110" y="164" width="84" height="84" rx="42" fill="#FFF4D8" />
  <path d="M145 205H169" stroke="#CF8A00" stroke-width="8" stroke-linecap="round" />
  <path d="M157 193V217" stroke="#CF8A00" stroke-width="8" stroke-linecap="round" />

  <rect x="84" y="270" width="128" height="170" fill="url(#dotPattern)" opacity="0.72" />
  <rect x="514" y="88" width="126" height="54" rx="27" fill="#FFFFFF" fill-opacity="0.26" />
  <path d="M558 115H596" stroke="#E3D8C5" stroke-width="4" stroke-linecap="round" />
  <path d="M614 115H626" stroke="#E3D8C5" stroke-width="4" stroke-linecap="round" />

  <g filter="url(#titleShadow)" font-family="'PingFang SC','Hiragino Sans GB','Microsoft YaHei','Noto Sans CJK SC',sans-serif">
    <text x="120" y="188" fill="#12717A" font-size="62" font-weight="700" letter-spacing="-1">
      bytedcli 源码解析
    </text>

    <text x="94" y="344" fill="#081E24" font-size="104" font-weight="800" letter-spacing="-2.8">
      为什么它更像一个
    </text>

    <text x="94" y="494" font-size="126" font-weight="900" letter-spacing="-3.4">
      <tspan fill="#081E24">面向 </tspan>
      <tspan fill="#FF7A00">智能体</tspan>
      <tspan fill="#081E24"> 的</tspan>
    </text>

    <text x="94" y="648" font-size="160" font-weight="900" letter-spacing="-4.4">
      <tspan fill="#12717A">CLI</tspan>
      <tspan fill="#081E24"> 平台</tspan>
    </text>
  </g>

  <path d="M86 904H478" stroke="url(#accentLine)" stroke-width="5" stroke-linecap="round" />
  <path d="M506 904H544" stroke="#FF7A00" stroke-width="5" stroke-linecap="round" stroke-dasharray="7 9" />
  <path d="M560 904H622" stroke="#FF7A00" stroke-width="5" stroke-linecap="round" />
  <path d="M94 922L110 922" stroke="#1AA3A8" stroke-width="5" stroke-linecap="round" />
  <path d="M124 922L154 922" stroke="#1AA3A8" stroke-width="5" stroke-linecap="round" stroke-dasharray="7 9" />
  <path d="M166 922L186 922" stroke="#1AA3A8" stroke-width="5" stroke-linecap="round" />

  <rect x="88" y="724" width="760" height="104" rx="30" fill="#FFFCF5" fill-opacity="0.5" stroke="#E7D9C5" stroke-opacity="0.66" />
  <text x="122" y="784" fill="url(#subAccent)" font-size="29" font-weight="700" font-family="'PingFang SC','Hiragino Sans GB','Microsoft YaHei','Noto Sans CJK SC',sans-serif" letter-spacing="0.8">
    命令 / 认证 / JSON / MCP / 技能
  </text>
</svg>
