<svg width="1672" height="941" viewBox="0 0 1672 941" fill="none" xmlns="http://www.w3.org/2000/svg">
  <rect width="1672" height="941" fill="#F6F7F2"/>
  <rect x="72" y="72" width="1528" height="797" rx="54" fill="#111318"/>
  <path d="M155 234C286 136 441 122 578 198C708 270 801 421 944 453C1096 487 1229 399 1395 430C1498 449 1565 508 1600 582V869H72V335C94 293 119 261 155 234Z" fill="#1C2730"/>
  <path d="M115 650C254 589 410 609 520 696C642 792 785 809 932 734C1074 661 1251 669 1397 765C1464 809 1518 845 1600 859V869H72V674C87 665 101 657 115 650Z" fill="#1D6A64" opacity="0.55"/>
  <circle cx="1266" cy="248" r="178" fill="#B8F05A" opacity="0.12"/>
  <circle cx="411" cy="692" r="214" fill="#5DE6D3" opacity="0.08"/>
  <g opacity="0.9">
    <rect x="175" y="171" width="372" height="226" rx="28" fill="#F6F7F2"/>
    <rect x="213" y="217" width="174" height="18" rx="9" fill="#111318"/>
    <rect x="213" y="260" width="257" height="12" rx="6" fill="#111318" opacity="0.55"/>
    <rect x="213" y="294" width="214" height="12" rx="6" fill="#111318" opacity="0.35"/>
    <rect x="213" y="329" width="84" height="30" rx="15" fill="#1D6A64"/>
    <rect x="317" y="329" width="84" height="30" rx="15" fill="#B8F05A"/>
  </g>
  <g>
    <rect x="1094" y="514" width="327" height="205" rx="30" fill="#F6F7F2"/>
    <path d="M1140 647C1196 580 1253 580 1309 647C1253 713 1196 713 1140 647Z" fill="#111318"/>
    <circle cx="1225" cy="647" r="46" fill="#5DE6D3"/>
    <circle cx="1225" cy="647" r="18" fill="#111318"/>
    <path d="M1347 586L1377 618L1347 650" stroke="#111318" stroke-width="18" stroke-linecap="round" stroke-linejoin="round"/>
  </g>
  <g>
    <path d="M727 237L836 174L945 237V363L836 426L727 363V237Z" fill="#111318" stroke="#B8F05A" stroke-width="8"/>
    <path d="M836 174V426" stroke="#B8F05A" stroke-width="8" opacity="0.7"/>
    <path d="M727 237L945 363" stroke="#B8F05A" stroke-width="8" opacity="0.5"/>
    <path d="M945 237L727 363" stroke="#B8F05A" stroke-width="8" opacity="0.5"/>
    <circle cx="836" cy="300" r="58" fill="#5DE6D3"/>
    <path d="M809 301H863M836 274V328" stroke="#111318" stroke-width="14" stroke-linecap="round"/>
  </g>
  <text x="174" y="505" fill="#F6F7F2" font-family="Arial, 'Noto Sans CJK SC', sans-serif" font-size="76" font-weight="800">X 上 AI 与前端热点</text>
  <text x="178" y="575" fill="#B8F05A" font-family="Arial, 'Noto Sans CJK SC', sans-serif" font-size="38" font-weight="700">2026-04-28</text>
  <text x="178" y="638" fill="#D7DED4" font-family="Arial, 'Noto Sans CJK SC', sans-serif" font-size="34">OpenAI 诉讼 · Copilot 计费 · Hermes 创意工具</text>
  <g transform="translate(178 737)">
    <rect width="326" height="64" rx="32" fill="#F6F7F2"/>
    <circle cx="48" cy="32" r="16" fill="#111318"/>
    <text x="82" y="43" fill="#111318" font-family="Arial, 'Noto Sans CJK SC', sans-serif" font-size="28" font-weight="700">每日新闻</text>
  </g>
  <g transform="translate(531 737)">
    <rect width="238" height="64" rx="32" fill="#1D6A64"/>
    <text x="42" y="43" fill="#F6F7F2" font-family="Arial, 'Noto Sans CJK SC', sans-serif" font-size="28" font-weight="700">AI 工作流</text>
  </g>
</svg>
