<svg width="1200" height="760" viewBox="0 0 1200 760" fill="none" xmlns="http://www.w3.org/2000/svg">
  <rect width="1200" height="760" fill="#eef5f2"/>
  <rect x="72" y="76" width="1056" height="608" rx="28" fill="#182327"/>
  <path d="M72 248H1128" stroke="#eef5f2" stroke-opacity="0.14" stroke-width="2"/>
  <path d="M72 496H1128" stroke="#eef5f2" stroke-opacity="0.14" stroke-width="2"/>
  <path d="M424 76V496" stroke="#eef5f2" stroke-opacity="0.14" stroke-width="2"/>
  <path d="M776 76V496" stroke="#eef5f2" stroke-opacity="0.14" stroke-width="2"/>
  <rect x="138" y="134" width="224" height="68" rx="34" fill="#f4d35e"/>
  <circle cx="182" cy="168" r="17" fill="#182327"/>
  <circle cx="222" cy="168" r="17" fill="#182327"/>
  <path d="M256 168H324" stroke="#182327" stroke-width="16" stroke-linecap="round"/>
  <path d="M502 136H682C703.539 136 721 153.461 721 175V188C721 209.539 703.539 227 682 227H502C480.461 227 463 209.539 463 188V175C463 153.461 480.461 136 502 136Z" fill="#7bdff2"/>
  <path d="M520 181H664" stroke="#182327" stroke-width="18" stroke-linecap="round"/>
  <path d="M946 118L1048 176L946 234L844 176L946 118Z" fill="#f28482"/>
  <path d="M946 152V200" stroke="#182327" stroke-width="18" stroke-linecap="round"/>
  <path d="M914 176H978" stroke="#182327" stroke-width="18" stroke-linecap="round"/>
  <text x="122" y="344" fill="#eef5f2" font-family="Arial, sans-serif" font-size="46" font-weight="700">搜索入口</text>
  <text x="122" y="392" fill="#b6c9c8" font-family="Arial, sans-serif" font-size="27">Ask.com / AI 问答</text>
  <text x="472" y="344" fill="#eef5f2" font-family="Arial, sans-serif" font-size="46" font-weight="700">模型评估</text>
  <text x="472" y="392" fill="#b6c9c8" font-family="Arial, sans-serif" font-size="27">DeepSeek V4 / 成本</text>
  <text x="824" y="344" fill="#eef5f2" font-family="Arial, sans-serif" font-size="46" font-weight="700">Agent 控制面</text>
  <text x="824" y="392" fill="#b6c9c8" font-family="Arial, sans-serif" font-size="27">Portkey / AI Gateway</text>
  <text x="120" y="588" fill="#eef5f2" font-family="Arial, sans-serif" font-size="62" font-weight="800">2026-05-04</text>
  <text x="120" y="638" fill="#b6c9c8" font-family="Arial, sans-serif" font-size="30">X 上 AI 与前端热点速览</text>
  <path d="M836 584H1088" stroke="#f4d35e" stroke-width="10" stroke-linecap="round"/>
  <path d="M836 620H1012" stroke="#7bdff2" stroke-width="10" stroke-linecap="round"/>
  <path d="M836 656H1060" stroke="#f28482" stroke-width="10" stroke-linecap="round"/>
</svg>
