<svg xmlns="http://www.w3.org/2000/svg" width="1600" height="900" viewBox="0 0 1600 900">
  <defs>
    <linearGradient id="sky" x1="0" y1="0" x2="1" y2="1">
      <stop offset="0%" stop-color="#f5efe4"/>
      <stop offset="48%" stop-color="#dbe9df"/>
      <stop offset="100%" stop-color="#c9dde8"/>
    </linearGradient>
    <filter id="shadow" x="-20%" y="-20%" width="140%" height="140%">
      <feDropShadow dx="0" dy="18" stdDeviation="18" flood-color="#36545c" flood-opacity="0.18"/>
    </filter>
    <pattern id="grid" width="48" height="48" patternUnits="userSpaceOnUse">
      <path d="M48 0H0V48" fill="none" stroke="#55717a" stroke-width="1" opacity="0.12"/>
    </pattern>
  </defs>
  <rect width="1600" height="900" fill="url(#sky)"/>
  <rect width="1600" height="900" fill="url(#grid)" opacity="0.55"/>
  <circle cx="1310" cy="150" r="92" fill="#f0bd6e" opacity="0.82"/>
  <path d="M0 635 C260 585 405 660 625 615 C842 571 1005 552 1220 610 C1405 660 1516 650 1600 612 L1600 900 L0 900 Z" fill="#7aa58d" opacity="0.44"/>
  <g filter="url(#shadow)">
    <rect x="120" y="135" width="620" height="610" rx="28" fill="#fffaf0" stroke="#314c53" stroke-width="3"/>
    <rect x="165" y="185" width="530" height="84" rx="14" fill="#2f5f67"/>
    <text x="195" y="238" font-family="Arial, 'PingFang SC', sans-serif" font-size="38" font-weight="700" fill="#fffaf0">Generative Agents</text>
    <text x="195" y="286" font-family="Arial, 'PingFang SC', sans-serif" font-size="24" fill="#f5d49e">记忆 / 反思 / 计划驱动的 AI 小镇</text>
    <g transform="translate(170 335)">
      <rect x="0" y="0" width="168" height="128" rx="16" fill="#e8795f"/>
      <rect x="198" y="-26" width="168" height="154" rx="16" fill="#f0bd6e"/>
      <rect x="396" y="14" width="168" height="114" rx="16" fill="#6fa3a5"/>
      <path d="M34 86 L84 36 L136 86 Z" fill="#fffaf0"/>
      <path d="M242 98 L282 42 L336 98 Z" fill="#fffaf0"/>
      <path d="M432 78 L481 36 L528 78 Z" fill="#fffaf0"/>
      <rect x="61" y="86" width="50" height="42" fill="#314c53"/>
      <rect x="263" y="98" width="46" height="56" fill="#314c53"/>
      <rect x="461" y="78" width="42" height="50" fill="#314c53"/>
    </g>
    <g transform="translate(175 520)">
      <rect x="0" y="0" width="520" height="150" rx="18" fill="#f2e1c7" stroke="#314c53" stroke-width="2"/>
      <text x="26" y="43" font-family="Arial, 'PingFang SC', sans-serif" font-size="26" font-weight="700" fill="#314c53">Memory Stream</text>
      <text x="26" y="82" font-family="Arial, 'PingFang SC', sans-serif" font-size="22" fill="#435e65">观察被写成自然语言事件</text>
      <text x="26" y="120" font-family="Arial, 'PingFang SC', sans-serif" font-size="22" fill="#435e65">再被检索、抽象、重新用于行动</text>
      <circle cx="428" cy="54" r="20" fill="#e8795f"/>
      <circle cx="466" cy="54" r="20" fill="#f0bd6e"/>
      <circle cx="447" cy="94" r="20" fill="#6fa3a5"/>
    </g>
  </g>
  <g filter="url(#shadow)">
    <rect x="835" y="175" width="240" height="150" rx="22" fill="#fffaf0" stroke="#314c53" stroke-width="3"/>
    <text x="880" y="234" font-family="Arial, 'PingFang SC', sans-serif" font-size="28" font-weight="700" fill="#314c53">检索</text>
    <text x="880" y="276" font-family="Arial, 'PingFang SC', sans-serif" font-size="22" fill="#5c7378">相关性 / 近期性</text>
    <rect x="1130" y="175" width="240" height="150" rx="22" fill="#fffaf0" stroke="#314c53" stroke-width="3"/>
    <text x="1175" y="234" font-family="Arial, 'PingFang SC', sans-serif" font-size="28" font-weight="700" fill="#314c53">反思</text>
    <text x="1175" y="276" font-family="Arial, 'PingFang SC', sans-serif" font-size="22" fill="#5c7378">低层事件变高层信念</text>
    <rect x="982" y="440" width="240" height="150" rx="22" fill="#fffaf0" stroke="#314c53" stroke-width="3"/>
    <text x="1027" y="499" font-family="Arial, 'PingFang SC', sans-serif" font-size="28" font-weight="700" fill="#314c53">计划</text>
    <text x="1027" y="541" font-family="Arial, 'PingFang SC', sans-serif" font-size="22" fill="#5c7378">日程递归拆成动作</text>
    <path d="M1075 250 H1128" stroke="#314c53" stroke-width="5" stroke-linecap="round"/>
    <path d="M1118 240 L1134 250 L1118 260" fill="none" stroke="#314c53" stroke-width="5" stroke-linecap="round" stroke-linejoin="round"/>
    <path d="M1250 327 C1246 402 1195 428 1145 438" fill="none" stroke="#314c53" stroke-width="5" stroke-linecap="round"/>
    <path d="M1157 423 L1142 439 L1164 446" fill="none" stroke="#314c53" stroke-width="5" stroke-linecap="round" stroke-linejoin="round"/>
    <path d="M982 515 C890 520 820 478 785 412" fill="none" stroke="#314c53" stroke-width="5" stroke-linecap="round"/>
    <path d="M780 434 L783 407 L804 424" fill="none" stroke="#314c53" stroke-width="5" stroke-linecap="round" stroke-linejoin="round"/>
  </g>
</svg>
