<svg xmlns="http://www.w3.org/2000/svg" width="1200" height="760" viewBox="0 0 1200 760">
  <defs>
    <marker id="arrow" viewBox="0 0 10 10" refX="9" refY="5" markerWidth="8" markerHeight="8" orient="auto">
      <path d="M0 0L10 5L0 10Z" fill="#334b54"/>
    </marker>
  </defs>
  <rect width="1200" height="760" rx="28" fill="#f5efe4"/>
  <text x="60" y="78" font-family="Arial, 'PingFang SC', sans-serif" font-size="34" font-weight="700" fill="#263f47">Smallville：自然语言世界和游戏状态之间的翻译层</text>
  <text x="60" y="118" font-family="Arial, 'PingFang SC', sans-serif" font-size="20" fill="#5d6f73">角色输出的是语言，沙盒执行的是坐标、路径和对象状态；系统必须在两者之间来回转换。</text>
  <rect x="70" y="190" width="240" height="410" rx="20" fill="#ffffff" stroke="#334b54" stroke-width="3"/>
  <text x="122" y="242" font-family="Arial, 'PingFang SC', sans-serif" font-size="27" font-weight="700" fill="#334b54">LLM Agent</text>
  <circle cx="155" cy="320" r="34" fill="#e8795f"/>
  <circle cx="220" cy="320" r="34" fill="#f0bd6e"/>
  <circle cx="185" cy="385" r="34" fill="#6fa3a5"/>
  <text x="104" y="475" font-family="Arial, 'PingFang SC', sans-serif" font-size="21" fill="#5d6f73">输出自然语言动作</text>
  <text x="104" y="510" font-family="Arial, 'PingFang SC', sans-serif" font-size="21" fill="#5d6f73">检索关系和记忆</text>
  <rect x="390" y="210" width="420" height="160" rx="18" fill="#e8795f" stroke="#334b54" stroke-width="3"/>
  <text x="430" y="266" font-family="Arial, 'PingFang SC', sans-serif" font-size="27" font-weight="700" fill="#fffaf0">动作文本</text>
  <text x="430" y="310" font-family="Arial, 'PingFang SC', sans-serif" font-size="21" fill="#fffaf0">“Isabella 正在做早餐”</text>
  <text x="430" y="344" font-family="Arial, 'PingFang SC', sans-serif" font-size="21" fill="#fffaf0">“John 要去药店柜台工作”</text>
  <rect x="390" y="430" width="420" height="160" rx="18" fill="#f0bd6e" stroke="#334b54" stroke-width="3"/>
  <text x="430" y="486" font-family="Arial, 'PingFang SC', sans-serif" font-size="27" font-weight="700" fill="#334b54">沙盒状态</text>
  <text x="430" y="530" font-family="Arial, 'PingFang SC', sans-serif" font-size="21" fill="#334b54">JSON：位置、对象、动作、状态</text>
  <text x="430" y="564" font-family="Arial, 'PingFang SC', sans-serif" font-size="21" fill="#334b54">路径算法：把目标地点变成移动</text>
  <rect x="890" y="190" width="240" height="410" rx="20" fill="#ffffff" stroke="#334b54" stroke-width="3"/>
  <text x="948" y="242" font-family="Arial, 'PingFang SC', sans-serif" font-size="27" font-weight="700" fill="#334b54">Smallville</text>
  <rect x="940" y="315" width="130" height="95" rx="10" fill="#6fa3a5"/>
  <path d="M958 315L1005 275L1052 315Z" fill="#e8795f"/>
  <rect x="982" y="358" width="44" height="52" fill="#334b54"/>
  <rect x="935" y="462" width="140" height="72" rx="10" fill="#f0bd6e"/>
  <text x="940" y="579" font-family="Arial, 'PingFang SC', sans-serif" font-size="21" fill="#5d6f73">房屋、咖啡馆、学校</text>
  <path d="M310 290H385" stroke="#334b54" stroke-width="5" marker-end="url(#arrow)"/>
  <path d="M810 290H885" stroke="#334b54" stroke-width="5" marker-end="url(#arrow)"/>
  <path d="M890 510H815" stroke="#334b54" stroke-width="5" marker-end="url(#arrow)"/>
  <path d="M390 510H315" stroke="#334b54" stroke-width="5" marker-end="url(#arrow)"/>
  <path d="M600 370V425" stroke="#334b54" stroke-width="5" marker-end="url(#arrow)"/>
  <path d="M650 430V375" stroke="#334b54" stroke-width="5" marker-end="url(#arrow)"/>
</svg>
