<svg xmlns="http://www.w3.org/2000/svg" width="820" height="1200" viewBox="0 0 656.000000 960.000000"><g transform="matrix(.1 0 0-.1 0 960)"><path d="m1456 7669c-69-16-213-98-269-154-102-100-151-218-151-360 1-77 6-106 38-200 70-207 203-457 276-519 39-32 64-33 155-1 72 24 333 60 346 46 12-11 29-110 29-163 0-55 23-156 46-201 25-48 85-107 133-132 29-14 52-35 63-57 27-52 78-191 78-211 0-48 34-179 60-233 17-35 50-80 77-104l46-44-13-125c-29-291-25-379 30-611 16-69 32-170 36-225 6-91 4-110-25-220-17-66-43-152-57-191l-25-70-113 25-112 25 4 81c4 93-18 252-48 345-58 175-175 337-296 410-107 64-257 86-379 55-209-55-416-279-504-548-13-37-26-67-31-67-5 0-113 23-240 51-127 28-242 48-255 45-42-11-72-112-42-147 7-9 74-30 157-48 309-70 360-83 355-92-3-4-6-69-6-142 0-216 47-383 151-540 115-174 258-259 440-259 143 0 258 48 377 156 116 106 227 287 268 440 11 42 23 65 30 62 6-2 48-12 93-22 77-18 82-21 82-44 0-15 11-41 25-60 14-19 25-40 25-47 0-23 29-72 49-83 18-9 62-16 241-39 36-5 82-12 102-16 20-4 48-5 62-1 35 9 91 60 106 97 11 26 17 29 39 23 14-3 60-14 101-23l75-17 12-82c6-45 17-97 23-116 13-39 71-96 99-96 15 0 19-11 24-67 12-117 8-232-7-262-19-35-243-252-326-315-36-26-87-59-115-73-92-46-128-95-141-191l-6-47 65-62c59-57 70-63 107-63 27 0 40-4 39-12-4-30 3-48 27-77 21-25 34-31 64-31 27 0 47-7 64-24 17-15 43-25 75-29 28-3 63-13 80-21 35-19 165-22 208-5 15 6 53 15 83 21 52 9 163 58 174 77 16 25 201 92 335 120 151 32 211 58 245 104 31 42 27 141-12 302-58 240-82 466-62 605 6 47 13 87 16 89 2 2 60-9 129-24 124-29 124-29 117-55-13-47-5-302 12-378 21-96 74-236 117-309 48-81 171-204 239-236 126-60 281-74 406-36 229 69 473 331 559 599 10 30 21 58 24 63 7 7 381-76 402-89 18-11 87 70 94 109 10 50-18 125-48 132-98 23-365 87-379 91-15 5-17 16-11 98 18 283-91 591-266 749-179 161-455 179-666 44-178-114-341-327-409-534-10-29-21-53-24-53-4 0-62 12-129 27l-123 27 8 70c11 113 7 454-7 521-7 33-48 169-91 302-104 321-102 301-48 353 23 23 66 53 93 67 28 14 69 39 93 55 62 43 402 385 437 440 23 37 36 48 59 50 29 3 37 17 186 313 167 333 205 432 220 567 16 140-3 234-74 375-81 163-138 245-241 352-87 90-118 114-194 154-107 57-190 77-321 77-52 0-111 5-130 11-19 6-132 15-250 19-167 7-232 13-293 30-160 43-295 57-562 61-44 1-134 8-200 15-92 11-137 12-195 3-102-14-343-73-408-98-62-25-175-28-226-7-26 11-35 21-40 50-4 19-27 76-52 126-57 113-149 211-243 258-57 29-73 32-145 31-45-1-98-5-120-10m220-54c50-21 157-127 214-212 43-64 77-148 95-233 6-31 25-58 31-45 14 32 19 33 82 19 76-18 223-15 230 4 2 8-8 12-34 12-20 0-35 2-32 5 7 7 266 70 373 91 108 20 258 22 300 4 21-9 110-15 295-20l265-7 123-41c139-47 195-53 319-34 136 21 302-11 452-88 37-18 42-26 66-100 44-140 32-265-37-407-53-109-75-109-97-4-20 93-81 164-73 85 5-52 41-160 63-187l20-27-21-29c-35-51-233-231-284-261-31-18-77-33-120-40-39-6-83-13-98-15-28-4-28-4-28 50 0 30-4 55-8 55-12 0-32-46-32-71 0-29-28-90-53-118-27-29-93-61-127-60-19 0-34 13-62 55-21 30-38 58-38 62 0 19 54 62 97 78 69 26 88 40 109 82 31 61 44 72 86 72 27 0 38 4 38 15 0 23-27 29-70 16-31-9-44-21-66-60-23-44-34-53-101-82-41-18-88-45-103-60l-28-28-60 72-61 72 52 5c95 10 137 46 210 179 46 84 154 204 225 250 29 18 82 38 137 51 126 29 155 39 155 56 0 33-179 0-297-56-83-38-189-145-279-280-81-123-115-150-188-150-86 0-102 21-127 167l-12 73 80 83c44 46 93 105 108 131 57 97 66 170 21 164-17-2-20-9-18-35 2-17-6-49-16-70-30-57-134-166-186-194-55-29-56-34-26-189 11-60 20-147 20-202 0-112 10-148 41-148 21 0 21 3 15 73-4 39-10 83-13 96-3 13-2 22 4 20 15-6 189-206 238-274 53-73 66-106 105-264 36-142 69-229 105-277 45-59 57-100 50-168-5-43 0-103 14-197 45-284 44-410-4-724-35-227-45-324-45-450l-1-110-24 30-25 30v-27c0-15 15-47 36-73 82-108 85-200 10-309-32-48-33-67-2-102l23-28 40 21c55 29 73 17 45-29-51-82-198-91-235-14-8 19-29 50-46 69-28 31-30 38-20 60 12 27 7 57-11 57-6 0-18-15-27-34-16-35-16-35 23-98 45-72 64-105 64-113 0-9-49-5-74 6-16 8-26 23-30 44-4 18-20 53-37 79-28 42-31 52-25 96 4 29 2 51-4 55-11 7-50-52-50-76 0-9 18-50 40-92 22-41 40-81 40-87 0-7-13-10-32-8-23 2-36 10-44 28-7 14-28 59-48 100-39 80-43 99-25 117 7 7 9 19 6 27-9 23-37 8-52-27-11-26-8-38 31-129 24-55 44-103 44-105 0-2-15-3-32-1-28 3-37 10-56 49-14 29-25 75-30 125l-7 79 48 90c83 154 105 206 142 327 29 97 35 131 34 205-1 164-30 300-100 485-74 193-88 264-81 422 2 44 4 48 15 32 11-15 17-17 35-7 30 16 35 47 27 156-7 96-21 135-45 120-9-6-11-30-6-101 4-52 6-94 4-94-10 0-168 199-200 251-20 34-58 125-84 202-26 78-58 166-70 196-13 29-24 55-24 57 0 13 23 0 48-27 32-35 62-34 62 0 0 29-43 55-155 91-55 17-116 41-136 52-37 20-139 139-209 242-51 74-62 119-60 225 3 112 3 111-21 111-20 0-21-4-15-41 4-22 4-55 1-73-7-32-7-32-95-45-82-13-91-12-124 5-19 11-50 39-68 64-19 25-49 52-68 62l-35 16 28 11c55 21 75 23 106 6 35-18 51-13 51 15 0 48-116 52-206 8-67-34-86-38-248-47-124-8-149-12-194-35-28-14-60-26-71-26-13 0-44 33-95 103-62 83-88 131-141 259-82 198-99 261-93 355 7 104 50 185 154 289 44 45 99 91 122 103 92 47 241 64 308 36m2826-517c154-71 193-176 152-401-18-96-11-123 24-101 27 17 40 89 41 225 1 125 1 126-29 167-16 23-30 44-30 48 0 3 21-10 46-28 185-132 384-503 384-714 0-165-73-375-216-621-46-78-94-164-108-192l-26-50-57 58c-112 111-393 278-567 336-79 26-154 32-188 14-11-6-22-9-24-6-3 2 18 48 46 102 52 98 61 147 20 110-10-9-24-14-29-10-17 10-13 25 7 25 10 0 56 18 102 40 71 35 99 57 195 153 114 114 207 230 243 303 52 103 64 232 36 370-24 116-49 154-124 188l-35 16 42-4c23-2 66-15 95-28m-2548-619c14-7 45-38 70-69 50-65 59-68 221-79l89-6 18-48c10-26 40-81 68-122 56-83 61-114 30-175-22-44-25-66-9-75 16-11 47 23 65 71l17 44 46-43c25-23 76-56 112-72 63-27 69-32 103-96 20-37 47-99 59-136 20-60 22-80 16-168-8-105-4-134 30-228 17-46 19-62 10-79-11-21-12-20-31 15-19 38-35 47-44 24-3-8 5-83 16-168 45-331 44-318 26-442-9-63-35-199-57-303-46-212-47-260-6-340 14-27 45-67 69-89 35-32 46-50 52-84 4-24 5-45 4-47-2-1-24 2-50 8-30 7-45 15-41 23 11 29-21 27-48-3-32-36-55-124-45-176 9-46 48-76 77-58 36 23 33 12-11-33-37-38-50-45-83-45-47 0-77 15-77 38 0 10-16 34-36 53-37 35-37 37-18 112 9 38-10 34-35-8-40-68-39-82 14-131 52-48 53-60 7-49-22 4-31 13-35 33-3 15-22 48-42 73-32 41-34 49-25 74 6 16 8 36 5 44-6 13-10 12-26-8-30-36-24-73 21-130 50-64 51-74 3-65-48 8-53 11-53 32 0 9-12 37-26 62-18 31-24 53-20 73 5 23 2 28-10 25-31-6-35-44-8-93 13-25 24-55 24-66 0-17-3-18-20-9-11 6-23 23-26 38-4 15-16 45-26 66-26 52-21 78 42 217 92 203 118 281 130 390 12 118 7 154-56 474l-46 230 16 135c29 240 27 236 60 147 20-57 21-67 11-142-6-39-4-54 8-63 21-18 33 1 46 72 6 33 24 83 41 112 16 30 30 61 30 69 0 25-28 17-52-15-25-35-38-38-38-10 0 12-34 57-80 106-98 104-121 148-159 305-16 68-37 144-45 168-20 55-21 54 9 35 23-15 25-15 31 0 14 37-16 74-96 115-96 50-139 94-189 191-30 57-40 91-45 145-4 39-9 91-12 118-6 52-6 52 30 36m1916-472l35-32-31-60-30-61-50 23c-27 12-68 25-92 29l-43 6 62 57c53 47 82 67 109 70 3 0 21-14 40-32m-119-166c102-39 101-36 46-138-27-48-60-114-75-145-15-32-30-57-33-58-20-1-119 296-119 358 0 21 107 11 181-17m343-65c93-35 288-136 379-197 43-28 108-80 145-114l67-63-31-34c-17-18-66-78-109-133-150-192-206-244-396-370-138-91-185-133-205-182-18-42-18-82 1-89 8-3 17-16 20-27 4-12 40-123 80-247 92-280 107-353 108-500 1-94-19-320-27-320-2 0-264 57-342 75-18 4-22 14-27 65-3 36-14 75-27 98-21 34-22 45-16 140 8 126 48 460 77 648 25 160 22 362-6 494-9 41-20 145-23 232-6 126-11 160-24 175-16 17-14 24 30 112 47 94 150 231 187 250 33 16 71 12 139-13m-1146-361l39-74-23-38c-20-34-23-36-30-18-4 11-13 35-20 54-13 30-20 151-10 151 3 0 22-34 44-75m135-212l39-42 9-163c9-166 23-249 60-349l21-57-21-40c-28-56-28-84 2-80 15 2 23 11 25 28 8 56 21 36 46-67 37-156 52-304 39-396-13-91-110-329-132-325-10 2-25 51-49 158-33 149-35 165-38 394l-3 240-46 46c-47 47-65 89-65 149 0 19-9 69-19 110-21 81-41 216-41 267 0 29 14 61 78 174l25 44 16-24c9-14 33-44 54-67m-1492-403c262-50 446-323 475-707 3-50 4-102 0-116l-5-23-213 47c-117 27-226 48-241 48-42 1-87-47-87-93 0-43 18-84 39-90 9-3 117-28 241-56 124-29 227-53 228-55 7-7-31-122-63-191-122-265-334-433-546-434-249 0-436 176-529 501-31 105-38 319-16 454 41 244 138 435 298 580 127 115 275 162 419 135m1423-386c3-21 8-97 11-169 6-144 27-309 56-429 10-44 16-82 14-85-3-2-30 1-60 8-50 11-55 15-55 39 0 56-21 96-84 161-44 46-68 80-75 108-12 43-9 63 58 363 16 74 32 159 36 188l7 54 43-100c23-54 46-117 49-138m-2399-183c125-27 228-51 230-53 7-7-17-98-25-98-9 0-431 97-462 106-32 9-16 94 17 94 7 0 116-22 240-49m4676-175c207-44 367-217 443-478 32-109 49-270 40-366-6-63-9-73-24-69-9 2-126 28-259 57l-242 53-30-29c-40-38-54-88-40-139 6-22 15-46 19-53 5-7 122-38 260-70 138-32 254-61 257-64 10-9-72-197-121-276-66-107-227-265-319-314-165-87-332-91-488-12-82 42-185 153-240 260-77 150-99 241-104 430-6 183 13 314 68 472 87 250 259 458 454 552 121 59 208 71 326 46m-3333-123c394-86 363-71 328-154l-15-36-346 81c-226 53-349 86-355 96-15 23-12 51 7 72 9 10 19 18 22 18 3 0 165-34 359-77m1122-244c36-7 69-15 73-19 6-6-31-98-47-117-4-4-294 65-306 72-13 8-13 66-1 98l9 24 104-23c57-13 132-29 168-35m1035-229c175-39 320-72 322-74 6-6-21-136-28-136-13 0-703 161-707 165-2 2 8 21 22 42 14 20 26 45 26 54 0 21 10 30 29 24 9-3 160-37 336-75m-402-97c-7-2-19-2-25 0-7 3-2 5 12 5 14 0 19-2 13-5m267-58c63-15 115-27 116-28 1-1-2-38-6-82-23-216-6-418 55-641 41-148 44-205 13-249-36-54-75-72-198-95-173-32-307-79-395-140-48-33-191-77-281-86-50-5-69-3-88 10-14 9-39 16-55 16-42 0-81 17-81 35 0 8 20 25 45 37 25 12 45 26 45 30 0 21-33 18-63-5-68-52-151-56-175-10-18 35 3 60 65 78 32 9 67 22 78 30 12 7 63 36 115 65 127 70 161 100 206 178 24 43 78 106 145 173 119 118 121 121 142 201 12 45 13 82 6 180-5 68-11 139-14 159-5 36-4 37 33 43 55 8 104 44 127 93 13 28 25 41 35 38 8-3 67-16 130-30m-590-95c97-22 143-25 172-9 12 7 24 7 29 2 5-5 15-73 21-150 10-123 9-150-5-208-10-40-27-79-44-99-16-18-72-84-126-146-54-63-113-136-130-163-20-30-47-57-72-69-22-11-82-48-133-80-50-33-119-68-151-79-33-10-68-23-79-30-25-16-112 21-112 48 0 31 13 41 74 56 67 18 86 31 69 48-8 8-19 7-40-5-15-8-47-20-70-26-23-6-45-15-49-21-10-18-45 21-35 40 5 9 11 32 15 52 8 45 23 58 116 103 60 29 103 62 212 164 75 70 161 150 191 177 49 44 56 56 62 100 6 46-8 239-22 293-6 27-3 27 107 2m2135-60c415-91 659-152 673-168 20-26 15-88-10-116l-23-25-463 107c-307 71-466 112-472 122-28 44 9 148 49 136 9-3 120-28 246-56"/><path d="m2676 7234c-85-19-140-44-144-67-5-25 21-22 87 10 47 24 70 28 149 29 52 1 97 5 100 9 4 4-2 13-12 21-25 18-91 17-180-2"/><path d="m3310 7197c0-7 16-21 35-30 26-13 35-23 35-42 0-18 5-25 20-25 31 0 25 43-11 79-31 32-79 42-79 18"/><path d="m1763 6969c-8-8-4-23 13-52 13-23 24-51 24-63 0-37-58-137-125-214-68-78-74-90-51-90 24 0 61 39 141 145 81 108 85 119 60 202-17 56-45 89-62 72"/><path d="m2055 6934c-23-23-2-45 36-37 38 7 47-2 121-110 72-104 118-140 174-135 55 4 51 29-6 45-59 18-68 25-127 114-85 125-153 168-198 123"/><path d="m2895 6841c-76-114-98-291-36-291 15 0 17 10 17 83-1 73 3 89 32 148 33 68 40 99 22 99-5 0-21-17-35-39"/><path d="m2683 6735c-94-43-186-147-169-190 9-24 36-17 47 13 6 15 24 48 40 74 37 57 95 84 159 74 45-7 63 11 40 39-18 22-57 18-117-10"/><path d="m3846 6588c-31-76-96-127-96-75 0 28-17 47-42 47-22 0-23-8-2-31 24-27 10-63-43-115-37-35-44-47-35-56 17-17 60 7 90 52 12 19 30 35 39 36 45 7 63 16 82 43 28 39 48 118 34 132-7 7-15-2-27-33"/><path d="m3896 6364c-45-16-76-41-76-61 0-20 25-16 67 13 32 22 45 25 86 20 45-5 48-4 45 17-2 18-10 22-43 24-22 1-58-5-79-13"/><path d="m3996 6277c-14-18-26-42-26-51 0-10-15-33-34-52-26-26-42-34-70-34-25 0-36-4-36-15 0-24 67-19 114 9 33 19 47 37 70 91 34 79 24 108-18 52"/><path d="m3339 5849c-14-14-19-28-15-42 3-12 6-29 6-38 0-9 23-45 51-80 28-35 68-97 87-137 37-73 54-85 60-42 7 43-18 99-71 161-69 81-87 109-87 138 0 21 3 23 34 18 36-6 64 12 51 33-12 19-93 12-116-11"/><path d="m4623 6499c-21-21 4-47 61-63 52-15 86-37 86-55 0-5-12-26-27-47-77-113-101-237-54-275 13-11 32-19 43-19 18 0 20-5 15-35-9-54-49-134-107-214-50-68-52-74-36-89 16-16 20-14 62 31 50 55 129 205 139 265 4 28 12 42 26 45 52 14-1 57-71 57-39 0-40 0-40 38 0 39 32 117 74 179 35 51 33 82-6 120-56 53-142 85-165 62"/><path d="m4513 6397c-16-12-74-68-128-124-94-100-101-105-232-169-93-45-132-69-125-76 26-26 166 33 282 120 108 81 250 222 250 250 0 28-8 28-47-1"/><path d="m4305 6039c-101-17-195-41-195-49 0-21 61-22 167-3 81 15 123 19 150 12 65-15 93-12 93 11 0 10-9 24-19 30-23 12-123 11-196-1"/><path d="m2650 5854c0-9 10-52 21-97 25-95 30-247 10-317-7-25-26-64-42-88-25-37-27-44-13-49 28-11 66 11 86 48 29 56 46 249 30 342-15 86-54 177-76 177-9 0-16-7-16-16"/><path d="m4248 5298c-9-7-48-58-89-113-40-55-110-142-156-193-78-88-90-112-59-112 28 0 255 269 327 387 17 28 1 50-23 31"/><path d="m1487 4686c-182-92-310-241-386-450-67-185-84-421-42-581 39-149 144-335 228-404 73-60 88-30 16 33-58 51-131 161-173 261-99 239-76 539 61 807 61 118 183 239 296 294 75 36 96 55 75 68-5 3-38-10-75-28"/><path d="m5143 3975c-179-121-333-329-392-533-106-366-82-699 72-994 45-89 67-112 81-90 2 4-11 32-30 61-46 74-88 179-120 297-64 244-31 610 76 842 65 139 209 309 324 382 31 20 55 42 56 53 0 24-8 22-67-18"/><path d="m3950 2680c-14-26 2-79 30-105 31-28 24-63-20-116-22-26-40-50-40-53 0-3 11-6 25-6 34 0 71 38 84 86 16 56 14 64-19 114-16 25-30 57-30 73 0 32-15 35-30 7"/><path d="m3202 2084c-27-18-29-34-4-34 21 0 42 18 42 37 0 17-11 16-38-3"/><path d="m2770 2390c-22-14 0-30 33-23 15 3 26 11 24 17-5 15-38 19-57 6"/></g></svg>