<svg width="1200" height="560" viewBox="0 0 1200 560" fill="none" xmlns="http://www.w3.org/2000/svg">
  <rect width="1200" height="560" rx="24" fill="#F5F7FA"/>
  <rect x="40" y="44" width="1120" height="472" rx="20" fill="#FFFFFF" stroke="#D7DEE9" stroke-width="2"/>

  <text x="72" y="98" fill="#111827" font-size="34" font-family="Inter, Arial, sans-serif" font-weight="700">
    Pretext: prepare once, layout many times
  </text>
  <text x="72" y="132" fill="#6B7280" font-size="18" font-family="Inter, Arial, sans-serif">
    The expensive text analysis and measurement happen once. Resize-time layout stays arithmetic-only.
  </text>

  <rect x="78" y="196" width="180" height="136" rx="16" fill="#E0F2FE" stroke="#38BDF8" stroke-width="2"/>
  <text x="116" y="248" fill="#075985" font-size="30" font-family="Inter, Arial, sans-serif" font-weight="700">Input</text>
  <text x="112" y="284" fill="#075985" font-size="20" font-family="Inter, Arial, sans-serif">text + font</text>

  <rect x="326" y="170" width="300" height="188" rx="18" fill="#EEF2FF" stroke="#818CF8" stroke-width="2"/>
  <text x="356" y="222" fill="#3730A3" font-size="30" font-family="Inter, Arial, sans-serif" font-weight="700">prepare()</text>
  <text x="356" y="258" fill="#3730A3" font-size="20" font-family="Inter, Arial, sans-serif">normalize whitespace</text>
  <text x="356" y="288" fill="#3730A3" font-size="20" font-family="Inter, Arial, sans-serif">segment text</text>
  <text x="356" y="318" fill="#3730A3" font-size="20" font-family="Inter, Arial, sans-serif">measure with canvas</text>
  <text x="356" y="348" fill="#3730A3" font-size="20" font-family="Inter, Arial, sans-serif">cache widths / break data</text>

  <rect x="694" y="170" width="206" height="188" rx="18" fill="#ECFDF5" stroke="#34D399" stroke-width="2"/>
  <text x="726" y="222" fill="#065F46" font-size="30" font-family="Inter, Arial, sans-serif" font-weight="700">Prepared</text>
  <text x="726" y="258" fill="#065F46" font-size="20" font-family="Inter, Arial, sans-serif">width-independent</text>
  <text x="726" y="288" fill="#065F46" font-size="20" font-family="Inter, Arial, sans-serif">opaque handle</text>
  <text x="726" y="318" fill="#065F46" font-size="20" font-family="Inter, Arial, sans-serif">reusable across widths</text>

  <rect x="968" y="170" width="150" height="86" rx="16" fill="#FEF3C7" stroke="#F59E0B" stroke-width="2"/>
  <text x="998" y="220" fill="#92400E" font-size="28" font-family="Inter, Arial, sans-serif" font-weight="700">layout()</text>

  <rect x="968" y="272" width="150" height="86" rx="16" fill="#FDE68A" stroke="#D97706" stroke-width="2"/>
  <text x="990" y="322" fill="#92400E" font-size="22" font-family="Inter, Arial, sans-serif" font-weight="700">lineCount</text>

  <rect x="968" y="374" width="150" height="86" rx="16" fill="#FDE68A" stroke="#D97706" stroke-width="2"/>
  <text x="1015" y="424" fill="#92400E" font-size="22" font-family="Inter, Arial, sans-serif" font-weight="700">height</text>

  <path d="M258 264H308" stroke="#4B5563" stroke-width="4" stroke-linecap="round"/>
  <path d="M302 255L324 264L302 273" fill="#4B5563"/>

  <path d="M626 264H676" stroke="#4B5563" stroke-width="4" stroke-linecap="round"/>
  <path d="M670 255L692 264L670 273" fill="#4B5563"/>

  <path d="M900 214H940" stroke="#4B5563" stroke-width="4" stroke-linecap="round"/>
  <path d="M934 205L956 214L934 223" fill="#4B5563"/>

  <path d="M1043 256V262" stroke="#4B5563" stroke-width="4" stroke-linecap="round"/>
  <path d="M1043 358V364" stroke="#4B5563" stroke-width="4" stroke-linecap="round"/>

  <rect x="326" y="392" width="574" height="76" rx="16" fill="#FFF7ED" stroke="#FDBA74" stroke-width="2"/>
  <text x="356" y="438" fill="#9A3412" font-size="22" font-family="Inter, Arial, sans-serif" font-weight="700">
    The win: on resize, rerun layout() instead of measuring through DOM again.
  </text>
</svg>
